<?xml version="1.0" standalone="no"?>
<!DOCTYPE svg PUBLIC "-//W3C//DTD SVG 20010904//EN"
 "http://www.w3.org/TR/2001/REC-SVG-20010904/DTD/svg10.dtd">
<svg version="1.0" xmlns="http://www.w3.org/2000/svg"
 width="512.000000pt" height="512.000000pt" viewBox="0 0 512.000000 512.000000"
 preserveAspectRatio="xMidYMid meet">
<metadata>
Created by potrace 1.14, written by Peter Selinger 2001-2017
</metadata>
<g transform="translate(0.000000,512.000000) scale(0.100000,-0.100000)"
fill="#000000" stroke="none">
<path d="M1330 5109 c-493 -56 -933 -359 -1158 -798 -94 -183 -142 -344 -162
-546 -8 -76 -10 -472 -7 -1280 4 -1276 1 -1205 62 -1420 33 -118 137 -327 216
-440 214 -301 542 -512 929 -597 l105 -23 1235 0 c1164 0 1241 1 1335 19 623
116 1095 588 1211 1211 18 94 19 171 19 1335 l0 1235 -23 105 c-143 651 -634
1110 -1280 1195 -95 13 -295 15 -1260 14 -631 -1 -1181 -5 -1222 -10z m510
-2549 l0 -1230 -245 0 -245 0 0 980 0 980 -120 0 -120 0 0 250 0 250 365 0
365 0 0 -1230z m2070 985 l0 -245 -529 0 c-303 0 -532 -4 -535 -9 -6 -9 -46
-363 -46 -401 0 -17 16 -19 308 -22 306 -3 307 -4 387 -31 243 -85 413 -258
487 -497 20 -65 23 -96 23 -235 0 -140 -3 -169 -23 -235 -82 -262 -267 -437
-540 -512 -73 -20 -105 -22 -629 -26 l-553 -4 0 251 0 251 523 0 c329 0 536 4
559 10 59 17 120 69 151 129 22 44 27 68 27 124 0 38 -5 87 -12 109 -15 50
-78 122 -132 151 -41 22 -46 22 -580 25 l-539 3 6 62 c20 209 128 1269 133
1305 l6 42 754 0 754 0 0 -245z"/>
</g>
</svg>
